<?xml version="1.0" encoding="UTF-8" standalone="no"?>
<svg
   xmlns:dc="http://purl.org/dc/elements/1.1/"
   xmlns:cc="http://creativecommons.org/ns#"
   xmlns:rdf="http://www.w3.org/1999/02/22-rdf-syntax-ns#"
   xmlns:svg="http://www.w3.org/2000/svg"
   xmlns="http://www.w3.org/2000/svg"
   xmlns:sodipodi="http://sodipodi.sourceforge.net/DTD/sodipodi-0.dtd"
   xmlns:inkscape="http://www.inkscape.org/namespaces/inkscape"
   width="660.55554"
   height="336.5065"
   overflow="hidden"
   version="1.1"
   id="svg96"
   sodipodi:docname="Dia4.SVG"
   inkscape:version="0.92.5 (2060ec1f9f, 2020-04-08)"
   style="overflow:hidden">
  <metadata
     id="metadata102">
    <rdf:RDF>
      <cc:Work
         rdf:about="">
        <dc:format>image/svg+xml</dc:format>
        <dc:type
           rdf:resource="http://purl.org/dc/dcmitype/StillImage" />
      </cc:Work>
    </rdf:RDF>
  </metadata>
  <defs
     id="defs100" />
  <sodipodi:namedview
     pagecolor="#ffffff"
     bordercolor="#666666"
     borderopacity="1"
     objecttolerance="10"
     gridtolerance="10"
     guidetolerance="10"
     inkscape:pageopacity="0"
     inkscape:pageshadow="2"
     inkscape:window-width="1920"
     inkscape:window-height="1016"
     id="namedview98"
     showgrid="false"
     inkscape:zoom="0.84631843"
     inkscape:cx="655.9564"
     inkscape:cy="0.70480375"
     inkscape:window-x="0"
     inkscape:window-y="0"
     inkscape:window-maximized="1"
     inkscape:current-layer="svg96" />
  <path
     style="fill:none;fill-rule:evenodd;stroke:#000000;stroke-width:1.33333004;stroke-miterlimit:8;stroke-dasharray:5.33333, 4"
     inkscape:connector-curvature="0"
     id="path4"
     stroke-miterlimit="8"
     d="m 332.56079,55.666665 v 11.466 h 66.065 v 11.465" />
  <path
     style="fill:none;fill-rule:evenodd;stroke:#3d67b1;stroke-width:1.33333004;stroke-miterlimit:8"
     inkscape:connector-curvature="0"
     id="path6"
     stroke-miterlimit="8"
     d="m 397.56079,210.66667 v 11.466 h 132.129 v 11.466" />
  <path
     style="fill:none;fill-rule:evenodd;stroke:#3d67b1;stroke-width:1.33333004;stroke-miterlimit:8"
     inkscape:connector-curvature="0"
     id="path8"
     stroke-miterlimit="8"
     d="m 397.36079,210.66667 v 22.932" />
  <path
     style="fill:none;fill-rule:evenodd;stroke:#3d67b1;stroke-width:1.33333004;stroke-miterlimit:8"
     inkscape:connector-curvature="0"
     id="path10"
     stroke-miterlimit="8"
     d="m 400.68979,210.66667 v 11.466 h -132.129 v 11.466" />
  <path
     style="fill:none;fill-rule:evenodd;stroke:#3d67b1;stroke-width:1.33333004;stroke-miterlimit:8"
     inkscape:connector-curvature="0"
     id="path12"
     stroke-miterlimit="8"
     d="m 268.56079,132.66667 v 11.466 h 132.129 v 11.466" />
  <path
     style="fill:none;fill-rule:evenodd;stroke:#3d67b1;stroke-width:1.33333004;stroke-miterlimit:8"
     inkscape:connector-curvature="0"
     id="path14"
     stroke-miterlimit="8"
     d="m 268.36079,132.66667 v 22.932" />
  <path
     style="fill:none;fill-rule:evenodd;stroke:#3d67b1;stroke-width:1.33333004;stroke-miterlimit:8"
     inkscape:connector-curvature="0"
     id="path16"
     stroke-miterlimit="8"
     d="m 270.68979,132.66667 v 11.466 h -132.129 v 11.466" />
  <path
     style="fill:none;fill-rule:evenodd;stroke:#34599c;stroke-width:1.33333004;stroke-miterlimit:8"
     inkscape:connector-curvature="0"
     id="path18"
     stroke-miterlimit="8"
     d="m 334.62579,55.666665 v 11.466 h -66.065 v 11.465" />
  <path
     style="fill:#ed7d31;fill-rule:evenodd;stroke:#ffffff;stroke-width:1.33333004;stroke-miterlimit:8"
     inkscape:connector-curvature="0"
     id="path20"
     stroke-miterlimit="8"
     d="m 279.56079,0.66666502 h 107 V 55.666665 h -107 z" />
  <text
     style="font-weight:400;font-size:21.33329964px;font-family:Arial, Arial_MSFontService, sans-serif;fill:#ffffff"
     id="text22"
     font-size="21.3333"
     font-weight="400"
     x="312.83881"
     y="34.166664">RI.4</text>
  <path
     style="fill:#ed7d31;fill-rule:evenodd;stroke:#ffffff;stroke-width:1.33333004;stroke-miterlimit:8"
     inkscape:connector-curvature="0"
     id="path24"
     stroke-miterlimit="8"
     d="m 214.56079,78.666665 h 107 v 54.000005 h -107 z" />
  <text
     style="font-weight:400;font-size:21.33329964px;font-family:Arial, Arial_MSFontService, sans-serif;fill:#ffffff"
     id="text26"
     font-size="21.3333"
     font-weight="400"
     x="239.10681"
     y="112.16666">RI.4.2</text>
  <path
     style="fill:#8faadc;fill-rule:evenodd;stroke:#ffffff;stroke-width:1.33333004;stroke-miterlimit:8"
     inkscape:connector-curvature="0"
     id="path28"
     stroke-miterlimit="8"
     d="M 84.560791,155.66667 H 191.56079 v 55 H 84.560791 Z" />
  <text
     style="font-weight:400;font-size:21.33329964px;font-family:Arial, Arial_MSFontService, sans-serif;fill:#ffffff"
     id="text30"
     font-size="21.3333"
     font-weight="400"
     x="100.55878"
     y="189.16667">RI.4.2.1</text>
  <path
     style="fill:#8faadc;fill-rule:evenodd;stroke:#ffffff;stroke-width:1.33333004;stroke-miterlimit:8"
     inkscape:connector-curvature="0"
     id="path32"
     stroke-miterlimit="8"
     d="m 214.56079,155.66667 h 107 v 55 h -107 z" />
  <text
     style="font-weight:400;font-size:21.33329964px;font-family:Arial, Arial_MSFontService, sans-serif;fill:#ffffff"
     id="text34"
     font-size="21.3333"
     font-weight="400"
     x="239.10681"
     y="189.16667">RI.4.2</text>
  <path
     style="fill:#ed7d31;fill-rule:evenodd;stroke:#ffffff;stroke-width:1.33333004;stroke-miterlimit:8"
     inkscape:connector-curvature="0"
     id="path36"
     stroke-miterlimit="8"
     d="m 344.56079,155.66667 h 107 v 55 h -107 z" />
  <text
     style="font-weight:400;font-size:21.33329964px;font-family:Arial, Arial_MSFontService, sans-serif;fill:#ffffff"
     id="text38"
     font-size="21.3333"
     font-weight="400"
     x="359.8208"
     y="189.16667">RI.4.2.3</text>
  <path
     style="fill:#8faadc;fill-rule:evenodd;stroke:#ffffff;stroke-width:1.33333004;stroke-miterlimit:8"
     inkscape:connector-curvature="0"
     id="path40"
     stroke-miterlimit="8"
     d="m 214.56079,233.66667 h 107 v 55 h -107 z" />
  <text
     style="font-weight:400;font-size:21.33329964px;font-family:Arial, Arial_MSFontService, sans-serif;fill:#ffffff"
     id="text42"
     font-size="21.3333"
     font-weight="400"
     x="221.27277"
     y="267.16666">RI.4.2.3.1</text>
  <path
     style="fill:#8faadc;fill-rule:evenodd;stroke:#ffffff;stroke-width:1.33333004;stroke-miterlimit:8"
     inkscape:connector-curvature="0"
     id="path44"
     stroke-miterlimit="8"
     d="m 344.56079,233.66667 h 107 v 55 h -107 z" />
  <text
     style="font-weight:400;font-size:21.33329964px;font-family:Arial, Arial_MSFontService, sans-serif;fill:#ffffff"
     id="text46"
     font-size="21.3333"
     font-weight="400"
     x="350.90381"
     y="267.16666">RI.4.2.3.2</text>
  <path
     style="fill:#8faadc;fill-rule:evenodd;stroke:#ffffff;stroke-width:1.33333004;stroke-miterlimit:8"
     inkscape:connector-curvature="0"
     id="path48"
     stroke-miterlimit="8"
     d="m 473.56079,233.66667 h 107 v 55 h -107 z" />
  <text
     style="font-weight:400;font-size:21.33329964px;font-family:Arial, Arial_MSFontService, sans-serif;fill:#ffffff"
     id="text50"
     font-size="21.3333"
     font-weight="400"
     x="480.53577"
     y="267.16666">RI.4.2.3.3</text>
  <path
     style="fill:#ffffff;fill-rule:evenodd;stroke:#ffffff;stroke-width:1.33333004;stroke-miterlimit:8"
     inkscape:connector-curvature="0"
     id="path52"
     stroke-miterlimit="8"
     d="m 344.56079,78.666665 h 107 v 54.000005 h -107 z" />
  <text
     style="font-weight:400;font-size:24px;font-family:Calibri, Calibri_MSFontService, sans-serif;fill:#aeaaaa"
     id="text54"
     font-size="24"
     font-weight="400"
     x="-1.8722229"
     y="96.166664">parent</text>
  <path
     style="fill:#afabab"
     inkscape:connector-curvature="0"
     id="path56"
     d="M 82.560791,98.999665 H 205.52479 v 1.334005 H 82.560791 Z m 121.630999,-3.333 8,4 -8,4.000005 z" />
  <text
     style="font-weight:400;font-size:24px;font-family:Calibri, Calibri_MSFontService, sans-serif;fill:#aeaaaa"
     id="text58"
     font-size="24"
     font-weight="400"
     x="582.46179"
     y="168.16667">parent</text>
  <path
     style="fill:#afabab"
     inkscape:connector-curvature="0"
     id="path60"
     d="m 476.22779,169.99967 h 97.638 v 1.334 h -97.638 z m 1.333,4.667 -8,-4 8,-4 z" />
  <text
     style="font-weight:400;font-size:24px;font-family:Calibri, Calibri_MSFontService, sans-serif;fill:#aeaaaa"
     id="text62"
     font-size="24"
     font-weight="400"
     x="601.30676"
     y="210.16667">child</text>
  <text
     style="font-weight:400;font-size:24px;font-family:Calibri, Calibri_MSFontService, sans-serif;fill:#aeaaaa"
     id="text64"
     font-size="24"
     font-weight="400"
     x="-1.3242188"
     y="138.16667">child</text>
  <path
     style="fill:#afabab"
     inkscape:connector-curvature="0"
     id="path66"
     d="m 591.87442,212.33416 -261.68663,18.39091 0.046,0.665 261.68737,-18.39089 z m -260.61363,14.63981 -7.7,4.551 8.261,3.4293 z" />
  <path
     style="fill:#afabab"
     inkscape:connector-curvature="0"
     id="path68"
     d="m 591.68641,212.33687 -128.57762,18.8617 0.097,0.6596 128.57738,-18.8617 z m -127.79062,15.0403 -7.335,5.1188 8.496,2.7965 z" />
  <path
     style="fill:#afabab"
     inkscape:connector-curvature="0"
     id="path70"
     d="m 592.33617,212.46267 -6.95867,8.99247 0.52724,0.408 6.95867,-8.99247 z m -9.0425,5.69401 -1.73248,8.77489 8.05937,-3.8789 z" />
  <path
     style="fill:#afabab"
     inkscape:connector-curvature="0"
     id="path72"
     d="m 61.733791,140.38167 16.997,10.351 -0.347,0.569 -16.996,-10.35 z m 17.765,6.526 4.753,7.577 -8.914,-0.745 z" />
  <path
     style="fill:#afabab"
     inkscape:connector-curvature="0"
     id="path74"
     d="m 61.590791,140.33467 146.956999,13.221 -0.06,0.664 -146.956999,-13.221 z m 145.956999,9.449 7.61,4.701 -8.326,3.267 z" />
  <path
     style="fill:#afabab"
     inkscape:connector-curvature="0"
     id="path76"
     d="m 61.576791,140.33367 276.715999,13.493 -0.033,0.666 -276.714999,-13.493 z m 275.561999,9.766 7.796,4.385 -8.185,3.606 z" />
  <text
     style="font-weight:400;font-size:24px;font-family:Calibri, Calibri_MSFontService, sans-serif"
     id="text78"
     font-size="24"
     font-weight="400"
     x="93.163788"
     y="248.16667">leaf</text>
  <text
     style="font-weight:400;font-size:24px;font-family:Calibri, Calibri_MSFontService, sans-serif"
     id="text80"
     font-size="24"
     font-weight="400"
     x="224.64581"
     y="336.16666">leaf</text>
  <path
     inkscape:connector-curvature="0"
     id="path82"
     d="m 114.57379,232.13167 -10.573,-15.745 0.553,-0.371 10.573,15.745 z m -12.874,-12.594 -1.139,-8.871 7.781,4.412 z" />
  <path
     inkscape:connector-curvature="0"
     id="path84"
     d="m 100.61816,232.12403 108.64863,-18.98196 -0.115,-0.6568 -108.64837,18.98204 z m 107.96663,-15.14056 7.192,-5.3171 -8.569,-2.5635 z" />
  <path
     inkscape:connector-curvature="0"
     id="path86"
     d="m 114.59223,231.85352 224.06656,-21.22595 -0.062,-0.6637 -224.06744,21.22595 z m 223.08556,-17.44995 7.587,-4.7366 -8.342,-3.2277 z" />
  <path
     inkscape:connector-curvature="0"
     id="path88"
     d="m 248.73479,319.21067 -14.303,-26.518 0.587,-0.317 14.303,26.519 z m -16.897,-23.604 -0.277,-8.94 7.318,5.142 z" />
  <path
     inkscape:connector-curvature="0"
     id="path90"
     d="m 248.65043,319.93372 90.08956,-25.15355 -0.1793,-0.6421 -90.08954,25.15355 z m 89.79136,-21.26335 6.6297,-6.0041 -8.781,-1.7012 z" />
  <path
     inkscape:connector-curvature="0"
     id="path92"
     d="m 248.60848,319.38257 217.43331,-31.4323 -0.095,-0.6599 -217.43369,31.4324 z m 216.63831,-27.6126 7.345,-5.1034 -8.49,-2.8143 z" />
</svg>
